<svg width="53" height="31" viewBox="0 0 53 31" fill="none" xmlns="http://www.w3.org/2000/svg">
<rect x="10.6" width="42.4" height="6.2" fill="white"/>
<rect x="11.1" y="0.5" width="41.4" height="5.2" stroke="black" stroke-opacity="0.5"/>
<rect x="10.6" y="12.4" width="42.4" height="6.2" fill="white"/>
<rect x="11.1" y="12.9" width="41.4" height="5.2" stroke="black" stroke-opacity="0.5"/>
<rect x="10.6" y="24.8" width="42.4" height="6.2" fill="white"/>
<rect x="11.1" y="25.3" width="41.4" height="5.2" stroke="black" stroke-opacity="0.5"/>
<ellipse cx="3.18" cy="3.1" rx="3.18" ry="3.1" fill="white"/>
<path d="M5.86 3.1C5.86 4.52401 4.67221 5.7 3.18 5.7C1.68779 5.7 0.5 4.52401 0.5 3.1C0.5 1.67599 1.68779 0.5 3.18 0.5C4.67221 0.5 5.86 1.67599 5.86 3.1Z" stroke="black" stroke-opacity="0.5"/>
<ellipse cx="3.18" cy="15.5" rx="3.18" ry="3.1" fill="white"/>
<path d="M5.86 15.5C5.86 16.924 4.67221 18.1 3.18 18.1C1.68779 18.1 0.5 16.924 0.5 15.5C0.5 14.076 1.68779 12.9 3.18 12.9C4.67221 12.9 5.86 14.076 5.86 15.5Z" stroke="black" stroke-opacity="0.5"/>
<ellipse cx="3.18" cy="27.9" rx="3.18" ry="3.1" fill="white"/>
<path d="M5.86 27.9C5.86 29.324 4.67221 30.5 3.18 30.5C1.68779 30.5 0.5 29.324 0.5 27.9C0.5 26.476 1.68779 25.3 3.18 25.3C4.67221 25.3 5.86 26.476 5.86 27.9Z" stroke="black" stroke-opacity="0.5"/>
</svg>
